<mxfile host="6219d11e-16cf-4a5b-a8e4-124925cc3684" modified="2020-09-02T07:44:44.603Z" agent="5.0 (Windows NT 10.0; Win64; x64) AppleWebKit/537.36 (KHTML, like Gecko) Code/1.47.3 Chrome/78.0.3904.130 Electron/7.3.2 Safari/537.36" etag="uyn5hjZfR1IUXkIGjfU7" version="13.1.3">
    <diagram id="6hGFLwfOUW9BJ-s0fimq" name="Page-1">
        <mxGraphModel dx="1665" dy="828" grid="1" gridSize="10" guides="1" tooltips="1" connect="1" arrows="1" fold="1" page="1" pageScale="1" pageWidth="650" pageHeight="350" math="0" shadow="0">
            <root>
                <mxCell id="0"/>
                <mxCell id="1" parent="0"/>
                <mxCell id="25" value="" style="rounded=0;whiteSpace=wrap;html=1;" parent="1" vertex="1">
                    <mxGeometry y="350" width="650" height="350" as="geometry"/>
                </mxCell>
                <mxCell id="5" style="edgeStyle=orthogonalEdgeStyle;rounded=0;orthogonalLoop=1;jettySize=auto;html=1;entryX=0;entryY=0.5;entryDx=0;entryDy=0;" parent="1" source="2" target="4" edge="1">
                    <mxGeometry relative="1" as="geometry"/>
                </mxCell>
                <mxCell id="2" value="ユーザ" style="shape=umlActor;verticalLabelPosition=bottom;labelBackgroundColor=#ffffff;verticalAlign=top;html=1;outlineConnect=0;" parent="1" vertex="1">
                    <mxGeometry x="10" y="430" width="30" height="60" as="geometry"/>
                </mxCell>
                <mxCell id="9" style="edgeStyle=orthogonalEdgeStyle;rounded=0;orthogonalLoop=1;jettySize=auto;html=1;" parent="1" source="4" target="7" edge="1">
                    <mxGeometry relative="1" as="geometry"/>
                </mxCell>
                <mxCell id="4" value="" style="shape=image;verticalLabelPosition=bottom;labelBackgroundColor=#ffffff;verticalAlign=top;aspect=fixed;imageAspect=0;image=data:image/png,iVBORw0KGgoAAAANSUhEUgAAADQAAAAVCAIAAACG6lovAAAAAXNSR0IArs4c6QAAAERlWElmTU0AKgAAAAgAAYdpAAQAAAABAAAAGgAAAAAAA6ABAAMAAAABAAEAAKACAAQAAAABAAAANKADAAQAAAABAAAAFQAAAAChHuu3AAAEn0lEQVRIDbVWIXTbMBDV3iuQmc0S6DGPeSyBKctYxlqYspQtbIEpy1jDGpiyhjWshg2bWcJmaDObWaz7p7Nlxcm6kSnv+d2d/kk/d7qTPry9vYnjkWTqkBSiPLb+Z833pd91pTza5sLWwGm1SeOkKFWpcqHwA1wpKaVS78mSoBWMwX91sZeFu/SE73vjoT8IXUPpA0cOWy/Xh3WUEgn8FAHKUjmOtL/G+I6AiDu173uw48WB7Pqu5zm9wL299jsuxbAidzOLo13KPISkeJkAAATGRrXl9pQQJoRmyghnHe1ZVUAT0hWB761moetKSus2yp6jhGbqsX8a1qK4vN293A+g9m8iRzpGFhIBIjbGCCTC5gkHpwKzEhHUAlskwoKIaiNcIJCqSgCLnHZDRHIlylTFKn+K0vHIJ3Lz5Z7zaM7jp6/b5KD/CHmJy6l4WfReHwZfZjFU59MjvoNRQHOIsx4wlvsriMC8zHtsNF92hAr006y3ec1whPJCnx626t00e5GnarVOrof+RVbo2tTEea1fz03YYEE88MXq0ebA20MdTUL8H/yZ9YQoXi8P+GIwbzEPmSur8IIvXBiD76jfwXe9TXOEFltTNVUHnTFglaTFBY4/Bh8Invj4ZZuilVij4jSvVmf15jEx7WazjGG8WdHZuP52FLaW6tTBAj8kdP2kaCtZMg2zJ05/kihKKwLAaW3mdIJYReQup7vXLW0MBlVs9NxkMZhus+U0YroPY9/tIjNHw1gcKUuFI9bMDnHo3fBuFecUPsp4zbzCEDlmxmliUOvM9dF+RoEuAHJDghwP5Vvx+HZPx8Bk8G53FHVysIaJHNv6vvw+Du+WcYomZsFYJHI8TDUA9Muq1j6qddFkyuSUoiCdxbDD7myH/L3n4suqMTKG7CccNL9gOv9JDfZ4nE9rK3Ko1tO0jufUXzittKvO+OmXp5pNdXdtVC1lOSijJNrsmrQaB4BafQ5Tp2k1eBACRahGMFMQcC5tldOKEGEXHmgr9497yO24CdGktQZXIHOGXu6bnAIDBoxEbWI5FAFU1MRiSHZkuSiO8EWqTzv71Gk1zH5sk+dtgnv87DifVoYGYQeCXZ6cNbOQ3boYCcB6vnu4IsY8zCGrBCutKzCLMup0IIuuaQUPd3q3Ky86aDe4QAp0OuopGOZvVcvj4hr6KE6j1neDKFJKhc3e3AQcYBNmwBhcl7hAzKIow/0GC19fdlqxmw9ycJtc+bMfsdmdQfa6Ja48LFAvnGda1vcmahkrhIMqVLiRQt39bca8FHs5us/cLg/7Q4obFmuqHFVP7cxEDupo6OPip1cJJvq4TFM8PXAb40FCIbTv1iDowMi3yCHOoKK0KJJU/fRggYhBU/okAAn3tlc91TxwkCVEQq8Md9DAcrgbvK6MlgOktHoyZZkaz+Kf+xQgz8PT8l8fc0QKx1w/zlqybbQxxs6CUckd2fS9xSQIA2qWFTlI4L3aJHhy4lEAlZ+ZEFryqaoREu2VBMvRXkFPNJizMAQML5HJV0oo4W1yrCNmr3FG+6CI+AVz+sXsqfHU0oL9SdV20Pkc4KqtaMGG8RsJSCAmX/NkbwAAAABJRU5ErkJggg==;" parent="1" vertex="1">
                    <mxGeometry x="110" y="449.5" width="52" height="21" as="geometry"/>
                </mxCell>
                <mxCell id="6" value="「詳細」ボタンを押下" style="text;html=1;align=center;verticalAlign=middle;resizable=0;points=[];autosize=1;" parent="1" vertex="1">
                    <mxGeometry x="66" y="480" width="140" height="20" as="geometry"/>
                </mxCell>
                <mxCell id="20" style="edgeStyle=orthogonalEdgeStyle;rounded=0;orthogonalLoop=1;jettySize=auto;html=1;entryX=0;entryY=0.5;entryDx=0;entryDy=0;" parent="1" source="7" target="11" edge="1">
                    <mxGeometry relative="1" as="geometry"/>
                </mxCell>
                <mxCell id="21" style="edgeStyle=orthogonalEdgeStyle;rounded=0;orthogonalLoop=1;jettySize=auto;html=1;entryX=0.15;entryY=0.05;entryDx=0;entryDy=0;entryPerimeter=0;" parent="1" source="7" target="15" edge="1">
                    <mxGeometry relative="1" as="geometry">
                        <Array as="points">
                            <mxPoint x="260" y="540"/>
                        </Array>
                    </mxGeometry>
                </mxCell>
                <mxCell id="7" value="Web打刻自動入力システム" style="rounded=0;whiteSpace=wrap;html=1;" parent="1" vertex="1">
                    <mxGeometry x="220" y="410" width="170" height="100" as="geometry"/>
                </mxCell>
                <mxCell id="11" value="&lt;span&gt;COMPANY HR&lt;/span&gt;&lt;br&gt;&lt;span&gt;勤務実績入力画面&lt;/span&gt;" style="rounded=0;whiteSpace=wrap;html=1;" parent="1" vertex="1">
                    <mxGeometry x="470" y="410" width="170" height="100" as="geometry"/>
                </mxCell>
                <mxCell id="14" value="自動入力" style="text;html=1;align=center;verticalAlign=middle;resizable=0;points=[];autosize=1;" parent="1" vertex="1">
                    <mxGeometry x="400" y="470" width="60" height="20" as="geometry"/>
                </mxCell>
                <mxCell id="22" style="edgeStyle=orthogonalEdgeStyle;rounded=0;orthogonalLoop=1;jettySize=auto;html=1;entryX=0.75;entryY=1;entryDx=0;entryDy=0;" parent="1" source="15" target="7" edge="1">
                    <mxGeometry relative="1" as="geometry">
                        <Array as="points">
                            <mxPoint x="348" y="540"/>
                        </Array>
                    </mxGeometry>
                </mxCell>
                <mxCell id="15" value="ローカルストレージ" style="shape=cylinder;whiteSpace=wrap;html=1;boundedLbl=1;backgroundOutline=1;" parent="1" vertex="1">
                    <mxGeometry x="240" y="570" width="130" height="80" as="geometry"/>
                </mxCell>
                <mxCell id="23" value="設定値の要求" style="text;html=1;align=center;verticalAlign=middle;resizable=0;points=[];autosize=1;" parent="1" vertex="1">
                    <mxGeometry x="170" y="531" width="90" height="20" as="geometry"/>
                </mxCell>
                <mxCell id="24" value="設定値の応答" style="text;html=1;align=center;verticalAlign=middle;resizable=0;points=[];autosize=1;" parent="1" vertex="1">
                    <mxGeometry x="350" y="531" width="90" height="20" as="geometry"/>
                </mxCell>
            </root>
        </mxGraphModel>
    </diagram>
</mxfile>